<svg id="Layer_1" data-name="Layer 1" xmlns="http://www.w3.org/2000/svg" viewBox="0 0 400 512"><defs><style>.cls-1{fill:#fdcb00;}.cls-2{fill:#1b1f21;}</style></defs><title>arrow-double-left</title><path class="cls-1" d="M318.51,389.13a39.4,39.4,0,0,1-27.95-11.52l-94.84-93.39-.39-.39a39.87,39.87,0,0,1,.31-55.89l95-93.55a39.68,39.68,0,0,1,56,.1l5.72,5.72a39.71,39.71,0,0,1,0,56.12c-.06.07-60.8,59.68-60.8,59.68s60.66,59.59,60.72,59.66a39.71,39.71,0,0,1,0,56.12l-5.72,5.72A39.43,39.43,0,0,1,318.51,389.13Z"/><path class="cls-2" d="M318.59,152.87a9.62,9.62,0,0,1,6.85,2.84l5.72,5.72a9.66,9.66,0,0,1,0,13.69L248.75,256l82.33,80.88a9.66,9.66,0,0,1,0,13.69l-5.72,5.72a9.67,9.67,0,0,1-13.69,0l-94.9-93.44a9.75,9.75,0,0,1,.08-13.7l94.9-93.44a9.61,9.61,0,0,1,6.84-2.84m0-60a69.19,69.19,0,0,0-49,20.15L174.75,206.4l-.33.33a69.75,69.75,0,0,0-.53,98.09l.78.78L269.51,399a69.68,69.68,0,0,0,98.28-.26l5.72-5.72a69.69,69.69,0,0,0,0-98.55l-.38-.37L334.39,256l38.8-38.08.4-.39a69.69,69.69,0,0,0,0-98.55l-5.72-5.72a69.27,69.27,0,0,0-49.28-20.41Z"/><path class="cls-1" d="M170.59,389.13a39.4,39.4,0,0,1-28-11.52s-94.95-93.49-95-93.55a39.87,39.87,0,0,1-.31-55.89l.39-.39,94.85-93.4a39.68,39.68,0,0,1,56,.11l5.72,5.72a39.71,39.71,0,0,1,0,56.12c-.06.07-60.72,59.66-60.72,59.66l60.81,59.68a39.73,39.73,0,0,1,0,56.12l-5.72,5.72A39.43,39.43,0,0,1,170.59,389.13Z"/><path class="cls-2" d="M170.51,152.87a9.62,9.62,0,0,1,6.85,2.84l5.72,5.72a9.66,9.66,0,0,1,0,13.69L100.75,256l82.41,80.88a9.66,9.66,0,0,1,0,13.69l-5.72,5.72a9.67,9.67,0,0,1-13.69,0l-94.9-93.44a9.75,9.75,0,0,1-.08-13.7l94.9-93.44a9.61,9.61,0,0,1,6.84-2.84m0-60a69.19,69.19,0,0,0-49,20.15L26.67,206.4l-.78.78a69.75,69.75,0,0,0,.53,98.09l.33.33L121.59,399a69.68,69.68,0,0,0,98.28-.26l5.72-5.72a69.69,69.69,0,0,0,0-98.55l-.4-.39L186.39,256l38.74-38.06.38-.37a69.69,69.69,0,0,0,0-98.55l-5.72-5.72a69.27,69.27,0,0,0-49.28-20.41Z"/></svg>