<svg id="Layer_1" data-name="Layer 1" xmlns="http://www.w3.org/2000/svg" viewBox="0 0 400 512"><defs><style>.cls-1{fill:#fdcb00;}.cls-2{fill:#1b1f21;}</style></defs><title>arrow-double-up</title><path class="cls-1" d="M112.27,420a39.43,39.43,0,0,1-28.06-11.63l-5.72-5.72a39.73,39.73,0,0,1-.12-56s93.51-95,93.57-95a39.74,39.74,0,0,1,55.89-.31l.39.39,93.39,94.84a39.68,39.68,0,0,1-.1,56l-5.72,5.72a39.67,39.67,0,0,1-56.12,0c-.07-.06-59.66-60.72-59.66-60.72s-59.61,60.74-59.68,60.8A39.4,39.4,0,0,1,112.27,420Z"/><path class="cls-2" d="M200,270a9.74,9.74,0,0,1,6.81,2.77l93.44,94.9a9.66,9.66,0,0,1,0,13.69l-5.72,5.72a9.67,9.67,0,0,1-13.69,0L200,304.75l-80.88,82.41a9.67,9.67,0,0,1-13.69,0l-5.72-5.72a9.66,9.66,0,0,1,0-13.69l93.44-94.9A9.74,9.74,0,0,1,200,270m0-60a69.27,69.27,0,0,0-49.31,20.42l-.33.33L57,325.59a69.77,69.77,0,0,0,.27,98.28L63,429.59a69.69,69.69,0,0,0,98.55,0l.39-.4L200,390.39l38.06,38.74.37.38a69.69,69.69,0,0,0,98.55,0l5.72-5.72a69.77,69.77,0,0,0,.27-98.28L249.6,230.67l-.78-.78A69.35,69.35,0,0,0,200,210Z"/><path class="cls-1" d="M287.73,272a39.45,39.45,0,0,1-28.06-11.62L200,199.57s-59.59,60.66-59.66,60.72a39.67,39.67,0,0,1-56.12,0l-5.72-5.72a39.72,39.72,0,0,1-.11-56l93.4-94.85.39-.39a39.74,39.74,0,0,1,55.89.31c.06,0,93.55,95,93.55,95a39.68,39.68,0,0,1-.1,56l-5.72,5.72A39.43,39.43,0,0,1,287.73,272Z"/><path class="cls-2" d="M200,122a9.74,9.74,0,0,1,6.89,2.85l93.44,94.9a9.66,9.66,0,0,1,0,13.69l-5.72,5.72a9.67,9.67,0,0,1-13.69,0L200,156.75l-80.88,82.33a9.67,9.67,0,0,1-13.69,0l-5.72-5.72a9.66,9.66,0,0,1,0-13.69l93.44-94.9A9.74,9.74,0,0,1,200,122m0-60h0a69.39,69.39,0,0,0-48.78,19.89l-.78.78L57,177.51a69.77,69.77,0,0,0,.27,98.28L63,281.51a69.69,69.69,0,0,0,98.55,0l.37-.38L200,242.39l38.08,38.8.39.4a69.69,69.69,0,0,0,98.55,0l5.72-5.72a69.77,69.77,0,0,0,.23-98.32L249.6,82.75l-.33-.33A69.27,69.27,0,0,0,200,62Z"/></svg>