<svg id="Layer_1" data-name="Layer 1" xmlns="http://www.w3.org/2000/svg" viewBox="0 0 400 512"><defs><style>.cls-1{fill:#fdcb00;}.cls-2{fill:#1b1f21;}</style></defs><title>arrow-double-right</title><path class="cls-1" d="M81.49,389.13a39.43,39.43,0,0,1-28.06-11.62l-5.72-5.72a39.71,39.71,0,0,1,0-56.12c.06-.07,60.72-59.66,60.72-59.66s-60.74-59.61-60.8-59.68a39.71,39.71,0,0,1,0-56.12l5.72-5.72a39.68,39.68,0,0,1,56-.1l95,93.55a39.87,39.87,0,0,1,.31,55.89l-.39.39-94.84,93.39A39.4,39.4,0,0,1,81.49,389.13Z"/><path class="cls-2" d="M81.41,152.87a9.61,9.61,0,0,1,6.84,2.84l94.9,93.44a9.75,9.75,0,0,1,.08,13.7l-94.9,93.44a9.67,9.67,0,0,1-13.69,0l-5.72-5.72a9.66,9.66,0,0,1,0-13.69L151.25,256,68.84,175.12a9.66,9.66,0,0,1,0-13.69l5.72-5.72a9.62,9.62,0,0,1,6.85-2.84m0-60a69.27,69.27,0,0,0-49.28,20.41L26.41,119a69.69,69.69,0,0,0,0,98.55l.4.39L65.61,256,26.87,294.08l-.38.37a69.69,69.69,0,0,0,0,98.55l5.72,5.72a69.68,69.68,0,0,0,98.28.26l94.84-93.38.78-.78a69.75,69.75,0,0,0-.53-98.09l-.33-.33L130.41,113a69.19,69.19,0,0,0-49-20.15Z"/><path class="cls-1" d="M229.41,389.13a39.43,39.43,0,0,1-28.06-11.62l-5.72-5.72a39.73,39.73,0,0,1,0-56.12L256.43,256s-60.66-59.59-60.72-59.66a39.71,39.71,0,0,1,0-56.12l5.72-5.72a39.68,39.68,0,0,1,56-.1l94.84,93.39.39.39a39.87,39.87,0,0,1-.31,55.89c-.05.06-95,93.55-95,93.55A39.4,39.4,0,0,1,229.41,389.13Z"/><path class="cls-2" d="M229.49,152.87a9.61,9.61,0,0,1,6.84,2.84l94.9,93.44a9.75,9.75,0,0,1-.08,13.7l-94.9,93.44a9.67,9.67,0,0,1-13.69,0l-5.72-5.72a9.66,9.66,0,0,1,0-13.69L299.25,256l-82.33-80.88a9.66,9.66,0,0,1,0-13.69l5.72-5.72a9.62,9.62,0,0,1,6.85-2.84m0-60a69.27,69.27,0,0,0-49.28,20.41L174.49,119a69.69,69.69,0,0,0,0,98.55l.38.37L213.61,256l-38.8,38.08-.4.39a69.69,69.69,0,0,0,0,98.55l5.72,5.72a69.68,69.68,0,0,0,98.28.26l94.84-93.38.33-.33a69.75,69.75,0,0,0,.53-98.09l-.78-.78L278.49,113a69.19,69.19,0,0,0-49-20.15Z"/></svg>