<svg
  id="Layer_1"
  xmlns="http://www.w3.org/2000/svg"
  viewBox="0 0 400 512"
>
  <path
    class="cls-1"
    d="M200,272a39.44,39.44,0,0,1-28.1-11.64c-.06-.05-93.55-95-93.55-95a39.68,39.68,0,0,1,.1-56l5.72-5.72a39.67,39.67,0,0,1,56.12,0c.07.06,59.68,60.8,59.68,60.8s59.59-60.66,59.66-60.72a39.67,39.67,0,0,1,56.12,0l5.72,5.72a39.68,39.68,0,0,1,.1,56l-93.39,94.84-.39.39A39.48,39.48,0,0,1,200,272Z"
  />
  <path
    class="cls-2"
    d="M112.27,122a9.66,9.66,0,0,1,6.85,2.84L200,207.25l80.88-82.33a9.67,9.67,0,0,1,13.69,0l5.72,5.72a9.66,9.66,0,0,1,0,13.69l-93.44,94.9a9.75,9.75,0,0,1-13.7-.08l-93.44-94.9a9.66,9.66,0,0,1,0-13.69l5.72-5.72a9.66,9.66,0,0,1,6.84-2.84m0-60A69.23,69.23,0,0,0,63,82.41l-5.72,5.72A69.77,69.77,0,0,0,57,186.41l93.39,94.84.33.33a69.75,69.75,0,0,0,98.09.53l.78-.78L343,186.49a69.77,69.77,0,0,0-.27-98.28L337,82.49a69.69,69.69,0,0,0-98.55,0l-.37.38L200,121.61l-38.08-38.8-.39-.4A69.27,69.27,0,0,0,112.27,62Z"
  />
  <path
    class="cls-1"
    d="M200,420a39.48,39.48,0,0,1-27.79-11.33l-.39-.39L78.39,313.44a39.68,39.68,0,0,1,.1-56l5.72-5.72a39.68,39.68,0,0,1,56.12,0L200,312.43l59.68-60.81a39.68,39.68,0,0,1,56.12,0l5.72,5.72a39.68,39.68,0,0,1,.1,56s-93.49,94.95-93.55,95A39.44,39.44,0,0,1,200,420Z"
  />
  <path
    class="cls-2"
    d="M287.73,270a9.66,9.66,0,0,1,6.84,2.84l5.72,5.72a9.66,9.66,0,0,1,0,13.69l-93.44,94.9a9.75,9.75,0,0,1-13.7.08l-93.44-94.9a9.66,9.66,0,0,1,0-13.69l5.72-5.72a9.67,9.67,0,0,1,13.69,0L200,355.25l80.88-82.41a9.66,9.66,0,0,1,6.85-2.84m0-60a69.27,69.27,0,0,0-49.28,20.41l-.39.4L200,269.61l-38.06-38.74-.37-.38a69.69,69.69,0,0,0-98.55,0l-5.72,5.72A69.77,69.77,0,0,0,57,334.49l93.39,94.84.78.78a69.75,69.75,0,0,0,98.09-.53l.33-.33L343,334.41a69.77,69.77,0,0,0-.27-98.28L337,230.41A69.23,69.23,0,0,0,287.73,210Z"
  />
</svg>
